<svg width="31" height="30" viewBox="0 0 31 30" fill="none" xmlns="http://www.w3.org/2000/svg">
<rect x="0.0107422" y="-0.00146484" width="30" height="30" rx="6" fill="#484848"/>
<path d="M17.7802 7.48096C17.9602 7.54621 18.1524 7.49626 18.3364 7.53541C18.4521 7.554 18.5689 7.56467 18.6861 7.56736C18.894 7.58221 18.894 7.58176 18.894 7.79731C18.894 8.48086 18.8913 9.16486 18.8967 9.84841C18.8967 9.95326 18.8679 9.97396 18.7675 9.97486C18.2455 9.97981 17.7231 9.95371 17.2006 9.99556C16.3947 10.0604 16.198 10.496 16.1742 11.0463C16.1472 11.6507 16.1683 12.2573 16.162 12.863C16.162 12.9642 16.203 12.9687 16.2822 12.9687C17.0683 12.9687 17.8549 12.9687 18.6411 12.9656C18.7567 12.9656 18.8076 12.9656 18.786 13.1181C18.6739 13.9097 18.5781 14.703 18.4813 15.4964C18.4674 15.6134 18.4305 15.6552 18.3013 15.6534C17.6421 15.6449 16.9828 15.6534 16.3213 15.6458C16.1814 15.6458 16.1593 15.6908 16.1598 15.815C16.1634 17.979 16.1598 20.1426 16.1665 22.3062C16.1665 22.4655 16.1193 22.4921 15.9744 22.4907C15.1644 22.4835 14.3536 22.4835 13.5421 22.4907C13.4143 22.4907 13.3936 22.4534 13.3941 22.3364C13.3977 20.1629 13.3941 17.9894 13.3995 15.8159C13.3995 15.6876 13.3747 15.644 13.2352 15.6458C12.5661 15.6543 11.8969 15.6458 11.2278 15.6525C11.1148 15.6525 11.0928 15.621 11.0928 15.5135C11.0979 14.7125 11.0979 13.9115 11.0928 13.1105C11.0928 12.9993 11.1153 12.9633 11.2345 12.9642C11.9095 12.9705 12.5823 12.9642 13.2564 12.9701C13.3738 12.9701 13.399 12.9368 13.399 12.8247C13.399 12.107 13.3716 11.3883 13.4134 10.6715C13.4692 9.72331 13.7703 8.87866 14.5146 8.24146C15.019 7.80946 15.618 7.59841 16.2696 7.51246C16.3042 7.50796 16.3497 7.53046 16.3722 7.48141L17.7802 7.48096Z" fill="white"/>
</svg>
