<svg width="31" height="30" viewBox="0 0 31 30" fill="none" xmlns="http://www.w3.org/2000/svg">
<rect x="0.0107422" y="-0.00146484" width="30" height="30" rx="6" fill="#484848"/>
<path d="M22.8857 11.6065V18.3286C22.8407 18.3484 22.8569 18.3893 22.8555 18.4222C22.8419 18.7486 22.7999 19.0732 22.73 19.3924C22.4298 20.764 21.6788 21.7864 20.39 22.3817C19.6286 22.7332 18.815 22.8209 17.9883 22.8421C17.933 22.8421 17.8673 22.8119 17.8209 22.8718H17.2359C16.9826 22.8216 16.722 22.8216 16.4687 22.8718H13.6449C13.402 22.8212 13.1512 22.8212 12.9083 22.8718H12.2657C12.2247 22.8115 12.1631 22.8439 12.1122 22.8421C11.6213 22.8277 11.1335 22.7912 10.6524 22.6859C8.86774 22.2962 7.67119 21.0475 7.35034 19.252C7.22569 18.5536 7.20904 17.8493 7.20364 17.1446C7.19239 15.728 7.19014 14.3096 7.20364 12.8939C7.21129 12.0839 7.21714 11.2676 7.41469 10.472C7.71754 9.25299 8.40019 8.32194 9.52069 7.73784C10.3082 7.32789 11.1654 7.21854 12.0407 7.18659C13.4879 7.13304 14.9355 7.15959 16.3827 7.15824C17.3484 7.15824 18.315 7.15194 19.2735 7.30809C21.1784 7.61859 22.5518 9.04779 22.7957 10.9661C22.824 11.1799 22.8195 11.3986 22.8857 11.6065ZM15.0516 21.4538C15.6245 21.4538 16.1973 21.4655 16.7702 21.4511C17.5509 21.4313 18.3362 21.4624 19.1102 21.308C20.2109 21.0884 20.9498 20.453 21.2787 19.369C21.4389 18.8402 21.4587 18.2921 21.4718 17.7467C21.5123 16.1669 21.5171 14.5865 21.4862 13.0055C21.4731 12.3305 21.4862 11.6555 21.3512 10.9891C21.123 9.83619 20.462 9.08019 19.3091 8.78004C18.6494 8.60814 17.9721 8.61084 17.2989 8.60004C16.0871 8.58384 14.8748 8.58879 13.6625 8.59239C12.7989 8.59509 11.9313 8.56809 11.0772 8.72199C9.90724 8.93259 9.12784 9.59319 8.81734 10.7668C8.66929 11.3261 8.65624 11.8994 8.64499 12.4696C8.61169 14.1679 8.61169 15.866 8.64499 17.564C8.65399 18.0536 8.66974 18.5441 8.76154 19.0288C8.91004 19.8109 9.27139 20.4584 9.94909 20.8985C10.472 21.2383 11.0669 21.3584 11.678 21.3935C12.8012 21.4651 13.9266 21.4615 15.0516 21.4538Z" fill="white"/>
<path d="M16.4688 22.8736C16.722 22.8234 16.9827 22.8234 17.236 22.8736H16.4688Z" fill="white"/>
<path d="M12.9082 22.8734C13.1511 22.8228 13.4019 22.8228 13.6449 22.8734H12.9082Z" fill="white"/>
<path d="M19.0999 15.0172C19.0999 17.2411 17.2752 19.0627 15.054 19.06C12.8328 19.0573 11.0098 17.2366 11.0107 15.014C11.0116 12.7915 12.8364 10.969 15.0576 10.9717C17.2788 10.9744 19.1013 12.7937 19.0999 15.0172ZM15.0531 17.6272C15.5701 17.6276 16.0756 17.4746 16.5056 17.1876C16.9356 16.9006 17.2708 16.4924 17.4687 16.0148C17.6665 15.5372 17.7183 15.0116 17.6172 14.5045C17.5162 13.9975 17.267 13.5318 16.9012 13.1665C16.5354 12.8012 16.0694 12.5526 15.5622 12.4523C15.055 12.352 14.5295 12.4044 14.0521 12.603C13.5748 12.8015 13.1671 13.1373 12.8806 13.5677C12.5942 13.9981 12.4419 14.5038 12.4431 15.0208C12.4429 15.3634 12.5102 15.7028 12.6414 16.0193C12.7725 16.3359 12.9648 16.6235 13.2072 16.8656C13.4497 17.1077 13.7375 17.2996 14.0543 17.4303C14.371 17.561 14.7104 17.6279 15.0531 17.6272Z" fill="white"/>
<path d="M19.2506 11.7587C19.1269 11.7597 19.0043 11.736 18.8899 11.6892C18.7754 11.6423 18.6714 11.5731 18.5839 11.4857C18.4965 11.3983 18.4272 11.2943 18.3803 11.1799C18.3334 11.0654 18.3097 10.9428 18.3106 10.8191C18.3094 10.5693 18.4072 10.3291 18.5826 10.1512C18.758 9.97323 18.9967 9.87201 19.2466 9.86963C19.4992 9.86963 19.7415 9.97 19.9202 10.1487C20.0989 10.3273 20.1992 10.5696 20.1992 10.8223C20.1985 10.9461 20.1734 11.0685 20.1253 11.1826C20.0773 11.2967 20.0072 11.4002 19.9191 11.4872C19.831 11.5741 19.7266 11.6429 19.6119 11.6895C19.4972 11.7361 19.3744 11.7596 19.2506 11.7587Z" fill="white"/>
</svg>
