<svg width="31" height="30" viewBox="0 0 31 30" fill="none" xmlns="http://www.w3.org/2000/svg">
<rect x="0.0107422" y="-0.00146484" width="30" height="30" rx="6" fill="#484848"/>
<path d="M15.7598 13.9759C16.4271 12.9206 17.3667 12.4832 18.5354 12.4814C19.1397 12.4814 19.7297 12.5602 20.2805 12.8279C21.0522 13.2032 21.4662 13.8566 21.6903 14.6549C21.8568 15.2471 21.9153 15.856 21.9212 16.4666C21.9324 18.2284 21.9257 19.9906 21.9306 21.7528C21.9306 21.8743 21.8937 21.8986 21.7799 21.8981C20.9271 21.8936 20.0739 21.8923 19.2212 21.8981C19.0862 21.8981 19.0574 21.8617 19.0578 21.7321C19.0608 20.2003 19.0598 18.6683 19.0547 17.1362C19.0604 16.7719 19.0235 16.408 18.9449 16.0522C18.7455 15.2188 18.1605 14.9222 17.3649 14.9933C16.347 15.0833 16.0532 15.7466 15.9362 16.463C15.8872 16.8017 15.8655 17.1438 15.8714 17.4859C15.8714 18.9056 15.8714 20.3258 15.8754 21.7456C15.8754 21.8806 15.8471 21.922 15.704 21.9206C14.8566 21.9125 14.0093 21.9139 13.1619 21.9206C13.0382 21.9206 13.0044 21.8941 13.0049 21.7658C13.0088 18.7958 13.0088 15.8272 13.0049 12.8599C13.0049 12.7249 13.0395 12.6943 13.1709 12.6952C13.9785 12.7015 14.7866 12.7015 15.5951 12.6952C15.7278 12.6952 15.7665 12.7285 15.7629 12.8626C15.753 13.2176 15.7598 13.574 15.7598 13.9759Z" fill="white"/>
<path d="M8.35659 17.3027C8.35659 15.8272 8.35884 14.3516 8.35254 12.8761C8.35254 12.7267 8.38854 12.692 8.53614 12.6934C9.37764 12.7009 10.2191 12.7009 11.0606 12.6934C11.1956 12.6934 11.2253 12.7307 11.2249 12.8608C11.2213 15.8233 11.2213 18.7856 11.2249 21.7478C11.2249 21.8905 11.1875 21.9206 11.0494 21.9197C10.2025 21.9131 9.35544 21.9131 8.50824 21.9197C8.38134 21.9197 8.35209 21.8878 8.35254 21.7627C8.35839 20.2763 8.35659 18.7895 8.35659 17.3027Z" fill="white"/>
<path d="M9.77209 11.4458C8.86669 11.4436 8.12284 10.6786 8.12599 9.76014C8.13089 9.43203 8.23288 9.11272 8.41908 8.84252C8.60528 8.57231 8.86734 8.36331 9.1722 8.2419C9.47706 8.12048 9.81106 8.09209 10.132 8.16031C10.453 8.22853 10.7466 8.39029 10.9757 8.6252C11.2049 8.8601 11.3593 9.15761 11.4195 9.48019C11.4797 9.80276 11.443 10.1359 11.3141 10.4377C11.1851 10.7394 10.9697 10.9962 10.6949 11.1757C10.4202 11.3551 10.0984 11.4491 9.77029 11.4458H9.77209Z" fill="white"/>
</svg>
