<svg width="31" height="30" viewBox="0 0 31 30" fill="none" xmlns="http://www.w3.org/2000/svg">
<rect x="0.0107422" y="-0.00146484" width="30" height="30" rx="6" fill="#484848"/>
<g clip-path="url(#clip0_514_390)">
<path d="M23.3061 12.2011V17.8608C23.2314 17.9485 23.2539 18.0615 23.2296 18.1623C22.8435 19.7823 21.5146 20.8623 19.8546 20.8686C16.6371 20.8785 13.4196 20.8717 10.2025 20.8717C9.59232 20.8717 9.01497 20.7331 8.49252 20.4217C7.34997 19.7391 6.77127 18.7216 6.75282 17.3937C6.74112 16.5387 6.75012 15.6801 6.75282 14.8233C6.75282 14.0362 6.73302 13.2483 6.76137 12.4626C6.79046 11.589 7.15352 10.7599 7.77573 10.146C8.39794 9.53221 9.2319 9.18042 10.1058 9.16316C10.752 9.14786 11.3991 9.15821 12.0457 9.15821C14.6329 9.15821 17.2198 9.15821 19.8064 9.15821C21.4881 9.15821 22.8106 10.2036 23.2228 11.8353C23.2512 11.9577 23.2305 12.0909 23.3061 12.2011ZM12.7567 15.0307C12.7567 15.7366 12.7567 16.4428 12.7567 17.1493C12.7567 17.4139 12.8625 17.4828 13.0992 17.3703L17.4516 15.2944C17.5416 15.2517 17.6356 15.2067 17.6397 15.0942C17.6437 14.9731 17.5461 14.925 17.452 14.8773C16.003 14.1441 14.5543 13.4104 13.1059 12.6763C12.8634 12.5535 12.7567 12.621 12.7563 12.8964C12.7563 13.608 12.7564 14.3194 12.7567 15.0307Z" fill="white"/>
</g>
<defs>
<clipPath id="clip0_514_390">
<rect width="18" height="18" fill="white" transform="translate(6.01074 5.99854)"/>
</clipPath>
</defs>
</svg>
